%
M48
M72
T01C0.0320
T02C0.0400
T03C0.0440
T04C0.1299
T05C0.1300
%
T01
X9305Y2430
X14305Y2430
X13280Y3780
X17280Y3780
T02
X17180Y5180
X16180Y5180
X15180Y5180
X10680Y4780
X10680Y3780
X10680Y5780
T03
X4680Y4680
X2680Y2680
X19680Y2980
X19680Y3980
X19680Y4980
X29680Y4680
X31680Y2680
T04
X26580Y3980
X7780Y3880
T05
X26580Y3980
M30
