G75*
%MOIN*%
%OFA0B0*%
%FSLAX24Y24*%
%IPPOS*%
%LPD*%
%AMOC8*
5,1,8,0,0,1.08239X$1,22.5*
%
%ADD10C,0.0060*%
%ADD11R,0.0250X0.0300*%
%ADD12R,0.1100X0.0500*%
%ADD13R,0.0340X0.0240*%
%ADD14C,0.0050*%
%ADD15C,0.0040*%
%ADD16C,0.0080*%
D10*
X005960Y000817D02*
X006067Y000710D01*
X006280Y000710D01*
X006387Y000817D01*
X006387Y000924D01*
X006280Y001030D01*
X006067Y001030D01*
X005960Y001137D01*
X005960Y001244D01*
X006067Y001351D01*
X006280Y001351D01*
X006387Y001244D01*
X006605Y001137D02*
X006818Y001137D01*
X006711Y001244D02*
X006711Y000817D01*
X006818Y000710D01*
X007034Y000710D02*
X007034Y001137D01*
X007034Y000924D02*
X007248Y001137D01*
X007355Y001137D01*
X007678Y001137D02*
X007892Y001137D01*
X007998Y001030D01*
X007998Y000710D01*
X007678Y000710D01*
X007571Y000817D01*
X007678Y000924D01*
X007998Y000924D01*
X008646Y001030D02*
X008646Y000817D01*
X008752Y000710D01*
X009073Y000710D01*
X009073Y000603D02*
X009073Y001137D01*
X008752Y001137D01*
X008646Y001030D01*
X008323Y001137D02*
X008216Y001137D01*
X008323Y001137D02*
X008323Y000710D01*
X008429Y000710D02*
X008216Y000710D01*
X008859Y000496D02*
X008966Y000496D01*
X009073Y000603D01*
X009290Y000710D02*
X009290Y001351D01*
X010041Y001244D02*
X010041Y000817D01*
X010148Y000710D01*
X010364Y000817D02*
X010471Y000710D01*
X010685Y000710D01*
X011009Y000817D02*
X011116Y000710D01*
X011436Y000710D01*
X011436Y001351D01*
X011436Y001137D02*
X011116Y001137D01*
X011009Y001030D01*
X011009Y000817D01*
X010791Y000924D02*
X010364Y000924D01*
X010364Y001030D02*
X010364Y000817D01*
X010791Y000924D02*
X010791Y001030D01*
X010685Y001137D01*
X010471Y001137D01*
X010364Y001030D01*
X010148Y001137D02*
X009935Y001137D01*
X009717Y001030D02*
X009610Y001137D01*
X009397Y001137D01*
X009290Y001030D01*
X009717Y001030D02*
X009717Y000710D01*
X011654Y000817D02*
X011760Y000710D01*
X012081Y000710D01*
X012081Y000603D02*
X012081Y001137D01*
X011760Y001137D01*
X011654Y001030D01*
X011654Y000817D01*
X012298Y000817D02*
X012298Y001030D01*
X012405Y001137D01*
X012618Y001137D01*
X012725Y001030D01*
X012725Y000924D01*
X012298Y000924D01*
X012298Y000817D02*
X012405Y000710D01*
X012618Y000710D01*
X012081Y000603D02*
X011974Y000496D01*
X011867Y000496D01*
X008323Y001351D02*
X008323Y001457D01*
X010205Y001830D02*
X010455Y001830D01*
X010505Y001880D01*
X013105Y001880D01*
X013155Y001830D01*
X013405Y001830D01*
X013422Y001832D01*
X013439Y001836D01*
X013455Y001843D01*
X013469Y001853D01*
X013482Y001866D01*
X013492Y001880D01*
X013499Y001896D01*
X013503Y001913D01*
X013505Y001930D01*
X013505Y002930D01*
X013503Y002947D01*
X013499Y002964D01*
X013492Y002980D01*
X013482Y002994D01*
X013469Y003007D01*
X013455Y003017D01*
X013439Y003024D01*
X013422Y003028D01*
X013405Y003030D01*
X013155Y003030D01*
X013105Y002980D01*
X010505Y002980D01*
X010455Y003030D01*
X010205Y003030D01*
X010188Y003028D01*
X010171Y003024D01*
X010155Y003017D01*
X010141Y003007D01*
X010128Y002994D01*
X010118Y002980D01*
X010111Y002964D01*
X010107Y002947D01*
X010105Y002930D01*
X010105Y001930D01*
X010107Y001913D01*
X010111Y001896D01*
X010118Y001880D01*
X010128Y001866D01*
X010141Y001853D01*
X010155Y001843D01*
X010171Y001836D01*
X010188Y001832D01*
X010205Y001830D01*
X010430Y003280D02*
X010930Y003280D01*
X011180Y003530D01*
X011180Y004030D01*
X010930Y004280D01*
X011180Y004530D01*
X011180Y005030D01*
X010930Y005280D01*
X011180Y005530D01*
X011180Y006030D01*
X010930Y006280D01*
X010430Y006280D01*
X010180Y006030D01*
X010180Y005530D01*
X010430Y005280D01*
X010180Y005030D01*
X010180Y004530D01*
X010430Y004280D01*
X010180Y004030D01*
X010180Y003530D01*
X010430Y003280D01*
X011409Y003868D02*
X012050Y003868D01*
X012050Y004295D01*
X012050Y004513D02*
X011409Y004513D01*
X011409Y004940D01*
X012050Y004940D02*
X012050Y004513D01*
X011730Y004513D02*
X011730Y004726D01*
X012050Y005157D02*
X011409Y005157D01*
X011409Y005478D01*
X011516Y005584D01*
X011943Y005584D01*
X012050Y005478D01*
X012050Y005157D01*
X014680Y004930D02*
X014680Y005430D01*
X014930Y005680D01*
X015430Y005680D01*
X015680Y005430D01*
X015930Y005680D01*
X016430Y005680D01*
X016680Y005430D01*
X016930Y005680D01*
X017430Y005680D01*
X017680Y005430D01*
X017680Y004930D01*
X017430Y004680D01*
X016930Y004680D01*
X016680Y004930D01*
X016430Y004680D01*
X015930Y004680D01*
X015680Y004930D01*
X015430Y004680D01*
X014930Y004680D01*
X014680Y004930D01*
X014280Y004230D02*
X014330Y004180D01*
X016230Y004180D01*
X016280Y004230D01*
X016430Y004230D01*
X016447Y004228D01*
X016464Y004224D01*
X016480Y004217D01*
X016494Y004207D01*
X016507Y004194D01*
X016517Y004180D01*
X016524Y004164D01*
X016528Y004147D01*
X016530Y004130D01*
X016530Y003430D01*
X016528Y003413D01*
X016524Y003396D01*
X016517Y003380D01*
X016507Y003366D01*
X016494Y003353D01*
X016480Y003343D01*
X016464Y003336D01*
X016447Y003332D01*
X016430Y003330D01*
X016280Y003330D01*
X016230Y003380D01*
X014330Y003380D01*
X014280Y003330D01*
X014130Y003330D01*
X014113Y003332D01*
X014096Y003336D01*
X014080Y003343D01*
X014066Y003353D01*
X014053Y003366D01*
X014043Y003380D01*
X014036Y003396D01*
X014032Y003413D01*
X014030Y003430D01*
X014030Y004130D01*
X014032Y004147D01*
X014036Y004164D01*
X014043Y004180D01*
X014053Y004194D01*
X014066Y004207D01*
X014080Y004217D01*
X014096Y004224D01*
X014113Y004228D01*
X014130Y004230D01*
X014280Y004230D01*
X006430Y003880D02*
X006432Y003953D01*
X006438Y004026D01*
X006448Y004098D01*
X006462Y004170D01*
X006479Y004241D01*
X006501Y004311D01*
X006526Y004380D01*
X006555Y004447D01*
X006587Y004512D01*
X006623Y004576D01*
X006663Y004638D01*
X006705Y004697D01*
X006751Y004754D01*
X006800Y004808D01*
X006852Y004860D01*
X006906Y004909D01*
X006963Y004955D01*
X007022Y004997D01*
X007084Y005037D01*
X007148Y005073D01*
X007213Y005105D01*
X007280Y005134D01*
X007349Y005159D01*
X007419Y005181D01*
X007490Y005198D01*
X007562Y005212D01*
X007634Y005222D01*
X007707Y005228D01*
X007780Y005230D01*
X007853Y005228D01*
X007926Y005222D01*
X007998Y005212D01*
X008070Y005198D01*
X008141Y005181D01*
X008211Y005159D01*
X008280Y005134D01*
X008347Y005105D01*
X008412Y005073D01*
X008476Y005037D01*
X008538Y004997D01*
X008597Y004955D01*
X008654Y004909D01*
X008708Y004860D01*
X008760Y004808D01*
X008809Y004754D01*
X008855Y004697D01*
X008897Y004638D01*
X008937Y004576D01*
X008973Y004512D01*
X009005Y004447D01*
X009034Y004380D01*
X009059Y004311D01*
X009081Y004241D01*
X009098Y004170D01*
X009112Y004098D01*
X009122Y004026D01*
X009128Y003953D01*
X009130Y003880D01*
X009128Y003807D01*
X009122Y003734D01*
X009112Y003662D01*
X009098Y003590D01*
X009081Y003519D01*
X009059Y003449D01*
X009034Y003380D01*
X009005Y003313D01*
X008973Y003248D01*
X008937Y003184D01*
X008897Y003122D01*
X008855Y003063D01*
X008809Y003006D01*
X008760Y002952D01*
X008708Y002900D01*
X008654Y002851D01*
X008597Y002805D01*
X008538Y002763D01*
X008476Y002723D01*
X008412Y002687D01*
X008347Y002655D01*
X008280Y002626D01*
X008211Y002601D01*
X008141Y002579D01*
X008070Y002562D01*
X007998Y002548D01*
X007926Y002538D01*
X007853Y002532D01*
X007780Y002530D01*
X007707Y002532D01*
X007634Y002538D01*
X007562Y002548D01*
X007490Y002562D01*
X007419Y002579D01*
X007349Y002601D01*
X007280Y002626D01*
X007213Y002655D01*
X007148Y002687D01*
X007084Y002723D01*
X007022Y002763D01*
X006963Y002805D01*
X006906Y002851D01*
X006852Y002900D01*
X006800Y002952D01*
X006751Y003006D01*
X006705Y003063D01*
X006663Y003122D01*
X006623Y003184D01*
X006587Y003248D01*
X006555Y003313D01*
X006526Y003380D01*
X006501Y003449D01*
X006479Y003519D01*
X006462Y003590D01*
X006448Y003662D01*
X006438Y003734D01*
X006432Y003807D01*
X006430Y003880D01*
X005180Y004180D02*
X004980Y004180D01*
X005180Y004180D02*
X005180Y004380D01*
X004380Y004180D02*
X004180Y004180D01*
X004180Y004380D01*
X002601Y004019D02*
X002601Y003592D01*
X002388Y003805D02*
X002815Y003805D01*
X004388Y003805D02*
X004815Y003805D01*
X003180Y003180D02*
X002980Y003180D01*
X003180Y003180D02*
X003180Y002980D01*
X002380Y003180D02*
X002180Y003180D01*
X002180Y002980D01*
X002180Y002380D02*
X002180Y002180D01*
X002380Y002180D01*
X002980Y002180D02*
X003180Y002180D01*
X003180Y002380D01*
X004180Y004980D02*
X004180Y005180D01*
X004380Y005180D01*
X004980Y005180D02*
X005180Y005180D01*
X005180Y004980D01*
X014838Y005942D02*
X015265Y006369D01*
X015051Y006369D02*
X015051Y005942D01*
X015265Y005942D02*
X014838Y006369D01*
X014838Y006155D02*
X015265Y006155D01*
X015938Y006255D02*
X016365Y006255D01*
X016151Y006042D02*
X016151Y006469D01*
X016938Y006355D02*
X017365Y006355D01*
X021680Y006030D02*
X026580Y006030D01*
X026580Y005680D01*
X027180Y005680D01*
X027180Y006030D01*
X027930Y006030D01*
X027930Y001930D01*
X027180Y001930D01*
X027180Y002280D01*
X026580Y002280D01*
X026580Y001930D01*
X021680Y001930D01*
X021680Y006030D01*
X029180Y005180D02*
X029180Y004980D01*
X029180Y005180D02*
X029380Y005180D01*
X029980Y005180D02*
X030180Y005180D01*
X030180Y004980D01*
X030180Y004380D02*
X030180Y004180D01*
X029980Y004180D01*
X029380Y004180D02*
X029180Y004180D01*
X029180Y004380D01*
X031601Y004019D02*
X031601Y003592D01*
X031388Y003805D02*
X031815Y003805D01*
X029815Y003805D02*
X029388Y003805D01*
X031180Y003180D02*
X031380Y003180D01*
X031180Y003180D02*
X031180Y002980D01*
X031980Y003180D02*
X032180Y003180D01*
X032180Y002980D01*
X032180Y002380D02*
X032180Y002180D01*
X031980Y002180D01*
X031380Y002180D02*
X031180Y002180D01*
X031180Y002380D01*
X028135Y001351D02*
X027708Y001351D01*
X027708Y001030D01*
X027922Y001137D01*
X028028Y001137D01*
X028135Y001030D01*
X028135Y000817D01*
X028028Y000710D01*
X027815Y000710D01*
X027708Y000817D01*
X027491Y000710D02*
X027064Y000710D01*
X027277Y000710D02*
X027277Y001351D01*
X027064Y001137D01*
X026846Y001244D02*
X026419Y000817D01*
X026526Y000710D01*
X026739Y000710D01*
X026846Y000817D01*
X026846Y001244D01*
X026739Y001351D01*
X026526Y001351D01*
X026419Y001244D01*
X026419Y000817D01*
X026202Y000710D02*
X025775Y000710D01*
X026202Y001137D01*
X026202Y001244D01*
X026095Y001351D01*
X025881Y001351D01*
X025775Y001244D01*
X024914Y001137D02*
X024700Y001137D01*
X024807Y001244D02*
X024807Y000817D01*
X024914Y000710D01*
X024483Y000710D02*
X024483Y001030D01*
X024376Y001137D01*
X024056Y001137D01*
X024056Y000710D01*
X023731Y000710D02*
X023518Y000710D01*
X023411Y000817D01*
X023411Y001030D01*
X023518Y001137D01*
X023731Y001137D01*
X023838Y001030D01*
X023838Y000924D01*
X023411Y000924D01*
X022873Y001137D02*
X022767Y001030D01*
X022767Y000817D01*
X022873Y000710D01*
X023194Y000710D01*
X023194Y001351D01*
X023194Y001137D02*
X022873Y001137D01*
X022550Y001137D02*
X022443Y001137D01*
X022230Y000924D01*
X022012Y001030D02*
X021585Y001030D01*
X021585Y001137D02*
X021799Y001351D01*
X022012Y001137D01*
X022012Y000710D01*
X022230Y000710D02*
X022230Y001137D01*
X021585Y001137D02*
X021585Y000710D01*
X025230Y003980D02*
X025232Y004053D01*
X025238Y004126D01*
X025248Y004198D01*
X025262Y004270D01*
X025279Y004341D01*
X025301Y004411D01*
X025326Y004480D01*
X025355Y004547D01*
X025387Y004612D01*
X025423Y004676D01*
X025463Y004738D01*
X025505Y004797D01*
X025551Y004854D01*
X025600Y004908D01*
X025652Y004960D01*
X025706Y005009D01*
X025763Y005055D01*
X025822Y005097D01*
X025884Y005137D01*
X025948Y005173D01*
X026013Y005205D01*
X026080Y005234D01*
X026149Y005259D01*
X026219Y005281D01*
X026290Y005298D01*
X026362Y005312D01*
X026434Y005322D01*
X026507Y005328D01*
X026580Y005330D01*
X026653Y005328D01*
X026726Y005322D01*
X026798Y005312D01*
X026870Y005298D01*
X026941Y005281D01*
X027011Y005259D01*
X027080Y005234D01*
X027147Y005205D01*
X027212Y005173D01*
X027276Y005137D01*
X027338Y005097D01*
X027397Y005055D01*
X027454Y005009D01*
X027508Y004960D01*
X027560Y004908D01*
X027609Y004854D01*
X027655Y004797D01*
X027697Y004738D01*
X027737Y004676D01*
X027773Y004612D01*
X027805Y004547D01*
X027834Y004480D01*
X027859Y004411D01*
X027881Y004341D01*
X027898Y004270D01*
X027912Y004198D01*
X027922Y004126D01*
X027928Y004053D01*
X027930Y003980D01*
X027928Y003907D01*
X027922Y003834D01*
X027912Y003762D01*
X027898Y003690D01*
X027881Y003619D01*
X027859Y003549D01*
X027834Y003480D01*
X027805Y003413D01*
X027773Y003348D01*
X027737Y003284D01*
X027697Y003222D01*
X027655Y003163D01*
X027609Y003106D01*
X027560Y003052D01*
X027508Y003000D01*
X027454Y002951D01*
X027397Y002905D01*
X027338Y002863D01*
X027276Y002823D01*
X027212Y002787D01*
X027147Y002755D01*
X027080Y002726D01*
X027011Y002701D01*
X026941Y002679D01*
X026870Y002662D01*
X026798Y002648D01*
X026726Y002638D01*
X026653Y002632D01*
X026580Y002630D01*
X026507Y002632D01*
X026434Y002638D01*
X026362Y002648D01*
X026290Y002662D01*
X026219Y002679D01*
X026149Y002701D01*
X026080Y002726D01*
X026013Y002755D01*
X025948Y002787D01*
X025884Y002823D01*
X025822Y002863D01*
X025763Y002905D01*
X025706Y002951D01*
X025652Y003000D01*
X025600Y003052D01*
X025551Y003106D01*
X025505Y003163D01*
X025463Y003222D01*
X025423Y003284D01*
X025387Y003348D01*
X025355Y003413D01*
X025326Y003480D01*
X025301Y003549D01*
X025279Y003619D01*
X025262Y003690D01*
X025248Y003762D01*
X025238Y003834D01*
X025232Y003907D01*
X025230Y003980D01*
X025870Y003980D02*
X025872Y004033D01*
X025878Y004086D01*
X025888Y004138D01*
X025902Y004189D01*
X025919Y004239D01*
X025940Y004288D01*
X025965Y004335D01*
X025993Y004380D01*
X026025Y004423D01*
X026060Y004463D01*
X026097Y004500D01*
X026137Y004535D01*
X026180Y004567D01*
X026225Y004595D01*
X026272Y004620D01*
X026321Y004641D01*
X026371Y004658D01*
X026422Y004672D01*
X026474Y004682D01*
X026527Y004688D01*
X026580Y004690D01*
X026633Y004688D01*
X026686Y004682D01*
X026738Y004672D01*
X026789Y004658D01*
X026839Y004641D01*
X026888Y004620D01*
X026935Y004595D01*
X026980Y004567D01*
X027023Y004535D01*
X027063Y004500D01*
X027100Y004463D01*
X027135Y004423D01*
X027167Y004380D01*
X027195Y004335D01*
X027220Y004288D01*
X027241Y004239D01*
X027258Y004189D01*
X027272Y004138D01*
X027282Y004086D01*
X027288Y004033D01*
X027290Y003980D01*
X027288Y003927D01*
X027282Y003874D01*
X027272Y003822D01*
X027258Y003771D01*
X027241Y003721D01*
X027220Y003672D01*
X027195Y003625D01*
X027167Y003580D01*
X027135Y003537D01*
X027100Y003497D01*
X027063Y003460D01*
X027023Y003425D01*
X026980Y003393D01*
X026935Y003365D01*
X026888Y003340D01*
X026839Y003319D01*
X026789Y003302D01*
X026738Y003288D01*
X026686Y003278D01*
X026633Y003272D01*
X026580Y003270D01*
X026527Y003272D01*
X026474Y003278D01*
X026422Y003288D01*
X026371Y003302D01*
X026321Y003319D01*
X026272Y003340D01*
X026225Y003365D01*
X026180Y003393D01*
X026137Y003425D01*
X026097Y003460D01*
X026060Y003497D01*
X026025Y003537D01*
X025993Y003580D01*
X025965Y003625D01*
X025940Y003672D01*
X025919Y003721D01*
X025902Y003771D01*
X025888Y003822D01*
X025878Y003874D01*
X025872Y003927D01*
X025870Y003980D01*
D11*
X020455Y003980D03*
X020455Y004980D03*
X020455Y002980D03*
D12*
X021130Y002980D03*
X021130Y003980D03*
X021130Y004980D03*
D13*
X016700Y003780D03*
X013860Y003780D03*
X013675Y002430D03*
X009935Y002430D03*
D14*
X014930Y001680D02*
X014930Y000180D01*
X019430Y000180D02*
X019430Y001680D01*
X014930Y001680D01*
X017745Y004955D02*
X018045Y004955D01*
X017895Y004955D02*
X017895Y005405D01*
X017745Y005255D01*
X010905Y006345D02*
X010905Y006645D01*
X010905Y006495D02*
X010455Y006495D01*
X010605Y006345D01*
D15*
X015353Y002334D02*
X015353Y002027D01*
X015200Y002180D02*
X015507Y002180D01*
X018740Y002180D02*
X019047Y002180D01*
D16*
X025891Y003980D02*
X025893Y004032D01*
X025899Y004084D01*
X025909Y004135D01*
X025922Y004185D01*
X025940Y004235D01*
X025961Y004282D01*
X025985Y004328D01*
X026014Y004372D01*
X026045Y004414D01*
X026079Y004453D01*
X026116Y004490D01*
X026156Y004523D01*
X026199Y004554D01*
X026243Y004581D01*
X026289Y004605D01*
X026338Y004625D01*
X026387Y004641D01*
X026438Y004654D01*
X026489Y004663D01*
X026541Y004668D01*
X026593Y004669D01*
X026645Y004666D01*
X026697Y004659D01*
X026748Y004648D01*
X026798Y004634D01*
X026847Y004615D01*
X026894Y004593D01*
X026939Y004568D01*
X026983Y004539D01*
X027024Y004507D01*
X027063Y004472D01*
X027098Y004434D01*
X027131Y004393D01*
X027161Y004351D01*
X027187Y004306D01*
X027210Y004259D01*
X027229Y004210D01*
X027245Y004160D01*
X027257Y004110D01*
X027265Y004058D01*
X027269Y004006D01*
X027269Y003954D01*
X027265Y003902D01*
X027257Y003850D01*
X027245Y003800D01*
X027229Y003750D01*
X027210Y003701D01*
X027187Y003654D01*
X027161Y003609D01*
X027131Y003567D01*
X027098Y003526D01*
X027063Y003488D01*
X027024Y003453D01*
X026983Y003421D01*
X026939Y003392D01*
X026894Y003367D01*
X026847Y003345D01*
X026798Y003326D01*
X026748Y003312D01*
X026697Y003301D01*
X026645Y003294D01*
X026593Y003291D01*
X026541Y003292D01*
X026489Y003297D01*
X026438Y003306D01*
X026387Y003319D01*
X026338Y003335D01*
X026289Y003355D01*
X026243Y003379D01*
X026199Y003406D01*
X026156Y003437D01*
X026116Y003470D01*
X026079Y003507D01*
X026045Y003546D01*
X026014Y003588D01*
X025985Y003632D01*
X025961Y003678D01*
X025940Y003725D01*
X025922Y003775D01*
X025909Y003825D01*
X025899Y003876D01*
X025893Y003928D01*
X025891Y003980D01*
X007091Y003880D02*
X007093Y003932D01*
X007099Y003984D01*
X007109Y004035D01*
X007122Y004085D01*
X007140Y004135D01*
X007161Y004182D01*
X007185Y004228D01*
X007214Y004272D01*
X007245Y004314D01*
X007279Y004353D01*
X007316Y004390D01*
X007356Y004423D01*
X007399Y004454D01*
X007443Y004481D01*
X007489Y004505D01*
X007538Y004525D01*
X007587Y004541D01*
X007638Y004554D01*
X007689Y004563D01*
X007741Y004568D01*
X007793Y004569D01*
X007845Y004566D01*
X007897Y004559D01*
X007948Y004548D01*
X007998Y004534D01*
X008047Y004515D01*
X008094Y004493D01*
X008139Y004468D01*
X008183Y004439D01*
X008224Y004407D01*
X008263Y004372D01*
X008298Y004334D01*
X008331Y004293D01*
X008361Y004251D01*
X008387Y004206D01*
X008410Y004159D01*
X008429Y004110D01*
X008445Y004060D01*
X008457Y004010D01*
X008465Y003958D01*
X008469Y003906D01*
X008469Y003854D01*
X008465Y003802D01*
X008457Y003750D01*
X008445Y003700D01*
X008429Y003650D01*
X008410Y003601D01*
X008387Y003554D01*
X008361Y003509D01*
X008331Y003467D01*
X008298Y003426D01*
X008263Y003388D01*
X008224Y003353D01*
X008183Y003321D01*
X008139Y003292D01*
X008094Y003267D01*
X008047Y003245D01*
X007998Y003226D01*
X007948Y003212D01*
X007897Y003201D01*
X007845Y003194D01*
X007793Y003191D01*
X007741Y003192D01*
X007689Y003197D01*
X007638Y003206D01*
X007587Y003219D01*
X007538Y003235D01*
X007489Y003255D01*
X007443Y003279D01*
X007399Y003306D01*
X007356Y003337D01*
X007316Y003370D01*
X007279Y003407D01*
X007245Y003446D01*
X007214Y003488D01*
X007185Y003532D01*
X007161Y003578D01*
X007140Y003625D01*
X007122Y003675D01*
X007109Y003725D01*
X007099Y003776D01*
X007093Y003828D01*
X007091Y003880D01*
M02*
